<svg xmlns="http://www.w3.org/2000/svg" xmlns:xlink="http://www.w3.org/1999/xlink" viewBox="0 0 236 171.714">
  <defs>
    <style>
      .cls-1 {
        fill: #f2f2f2;
        opacity: 0.52;
      }

      .cls-2 {
        fill: #f4f4f4;
      }

      .cls-3 {
        fill: #2dd393;
      }

      .cls-15, .cls-4 {
        opacity: 0.07;
      }

      .cls-4 {
        fill: url(#linear-gradient);
      }

      .cls-5 {
        fill: #fff;
      }

      .cls-6 {
        opacity: 0.15;
        fill: url(#linear-gradient-2);
      }

      .cls-7 {
        fill: #dbdbdb;
      }

      .cls-8 {
        fill: #daf0fb;
      }

      .cls-9 {
        fill: #80b4ff;
      }

      .cls-10 {
        fill: none;
        stroke: #80b4ff;
        stroke-miterlimit: 10;
        stroke-width: 3px;
        opacity: 0.2;
      }

      .cls-11 {
        opacity: 0.1;
        fill: url(#linear-gradient-3);
      }

      .cls-12 {
        fill: #f7c779;
      }

      .cls-13 {
        fill: #ffb306;
      }

      .cls-14 {
        fill: #c68400;
      }
    </style>
    <linearGradient id="linear-gradient" x1="0.5" y1="1.117" x2="0.5" y2="-0.001" gradientUnits="objectBoundingBox">
      <stop offset="0" stop-color="#081f40" stop-opacity="0"/>
      <stop offset="1" stop-color="#081f40" stop-opacity="0.902"/>
    </linearGradient>
    <linearGradient id="linear-gradient-2" x1="0.743" y1="0.28" x2="0.287" y2="0.724" gradientUnits="objectBoundingBox">
      <stop offset="0" stop-color="#0042b7"/>
      <stop offset="1" stop-color="#0042b7" stop-opacity="0"/>
    </linearGradient>
    <linearGradient id="linear-gradient-3" x1="0.307" y1="2.827" x2="0.307" y2="1.845" xlink:href="#linear-gradient"/>
  </defs>
  <g id="security-and-governance" transform="translate(-1.75)">
    <g id="Layer_1" data-name="Layer 1" transform="translate(1.75)">
      <path id="Path_114" data-name="Path 114" class="cls-1" d="M210.379,76.757h-9.97c9.717-3.165,16.918-11.64,16.918-22.157a23,23,0,0,0-22.853-22.948H158.366a6.33,6.33,0,0,1,0-12.661h13.808a9.5,9.5,0,0,0,0-18.991H27.072a25.322,25.322,0,0,0,0,50.644H48.9a7.122,7.122,0,0,1,0,14.244H34.787a32.839,32.839,0,0,0,0,65.679H56.334c.886.087,1.788,0,2.7,0H210.379a27.367,27.367,0,0,0,27.371-26.984C237.687,88.69,225.287,76.757,210.379,76.757Z" transform="translate(-1.75)"/>
      <path id="Path_115" data-name="Path 115" class="cls-2" d="M20.06,23.76h-.04Z" transform="translate(-5.563 -4.958)"/>
      <rect id="Rectangle_34" data-name="Rectangle 34" class="cls-3" width="175.671" height="64.887" rx="32.444" transform="translate(29.476 106.827)"/>
      <path id="Path_116" data-name="Path 116" class="cls-4" d="M174.264,164.49H102.254c-2.445,0-4.352.7-7.478,3.83L82.44,180.72h79.3l12.218-12.3C176.258,166.136,176.36,164.617,174.264,164.49Z" transform="translate(-18.589 -34.328)"/>
      <path id="Path_117" data-name="Path 117" class="cls-5" d="M176.567,133.742H100.6a4.7,4.7,0,0,1-4.748-4.677L95.79,23.9a4.89,4.89,0,0,1,4.748-4.89h53.287l27.593,30.853v79.25A4.748,4.748,0,0,1,176.567,133.742Z" transform="translate(-21.375 -3.967)"/>
      <path id="Path_118" data-name="Path 118" class="cls-6" d="M190.467,49.986,168.888,71.344,139.91,42.492,162.937,19.41Z" transform="translate(-30.583 -4.051)"/>
      <path id="Path_119" data-name="Path 119" class="cls-5" d="M169,19.45V42.168c0,4.249,1.361,7.786,5.824,7.786h21.714Z" transform="translate(-36.654 -4.059)"/>
      <rect id="Rectangle_35" data-name="Rectangle 35" class="cls-7" width="53.809" height="3.957" transform="translate(90.407 60.139)"/>
      <rect id="Rectangle_36" data-name="Rectangle 36" class="cls-7" width="53.809" height="3.165" transform="translate(90.407 51.435)"/>
      <rect id="Rectangle_37" data-name="Rectangle 37" class="cls-7" width="53.809" height="3.165" transform="translate(90.407 90.209)"/>
      <rect id="Rectangle_38" data-name="Rectangle 38" class="cls-7" width="41.939" height="3.165" transform="translate(90.407 101.288)"/>
      <rect id="Rectangle_39" data-name="Rectangle 39" class="cls-7" width="53.809" height="3.957" transform="translate(90.407 79.131)"/>
      <rect id="Rectangle_40" data-name="Rectangle 40" class="cls-7" width="53.809" height="3.957" transform="translate(90.407 69.635)"/>
      <path id="Path_120" data-name="Path 120" class="cls-8" d="M88,156.485v20.55l14.077-6.774,13.618,6.774v-22.41L88,152.75Z" transform="translate(-19.75 -31.878)"/>
      <path id="Path_121" data-name="Path 121" class="cls-9" d="M99.584,98.663l3.64-2.413,2.928,3.244,4.123-1.432,2.034,3.869,4.352-.364,1,4.249,4.3.736-.079,4.368,3.988,1.78-1.171,4.21,3.418,2.714-2.176,3.79,2.635,3.482-3.054,3.126,1.685,4.028-3.727,2.263.625,4.321-4.178,1.266-.459,4.344-4.368.19-1.527,4.091-4.273-.9-2.493,3.585-3.917-1.939-3.308,2.849-3.308-2.849-3.917,1.939-2.5-3.585-4.273.9-1.527-4.091-4.36-.19-.467-4.344-4.178-1.266.633-4.321-3.735-2.263,1.685-4.028L70.59,126.9l2.635-3.482-2.176-3.79,3.418-2.714L73.3,112.7l3.988-1.78-.087-4.368,4.3-.736,1-4.249,4.352.364,2.026-3.869,4.131,1.432,2.928-3.244Z" transform="translate(-16.116 -20.087)"/>
      <circle id="Ellipse_12" data-name="Ellipse 12" class="cls-8" cx="23.518" cy="23.518" r="23.518" transform="translate(59.799 81.584)"/>
      <circle id="Ellipse_13" data-name="Ellipse 13" class="cls-10" cx="17.622" cy="17.622" r="17.622" transform="translate(65.845 87.606)"/>
      <path id="Path_122" data-name="Path 122" class="cls-11" d="M222.33,193.73l-43.522.317h0c-2.421,0-4.321.641-7.415,3.775l-14.054,14.2,50.8-.38,13.927-14.077C224.332,195.281,224.411,193.849,222.33,193.73Z" transform="translate(-34.22 -40.43)"/>
      <path id="Path_123" data-name="Path 123" class="cls-12" d="M223.846,129.511a16.165,16.165,0,1,0-32.329.19l-.447,16.079a1.931,1.931,0,1,0,3.862,0l.451-16.079a12.305,12.305,0,0,1,24.61-.142l-.372,29.753h3.862Z" transform="translate(-41.259 -23.674)"/>
      <path id="Path_124" data-name="Path 124" class="cls-13" d="M226.792,148H182.842a1.765,1.765,0,0,0-1.844,1.86v33.124a2.073,2.073,0,0,0,1.844,2.208h43.949c1.1,0,1.686-1.108,1.686-2.208V149.859a1.638,1.638,0,0,0-1.686-1.86Z" transform="translate(-39.156 -30.886)"/>
      <circle id="Ellipse_14" data-name="Ellipse 14" class="cls-14" cx="4.004" cy="4.004" r="4.004" transform="translate(162.226 127.647) rotate(-1.6)"/>
      <path id="Path_125" data-name="Path 125" class="cls-14" d="M208.51,178.674l2.762-10.754,3.355,10.588Z" transform="translate(-44.899 -35.043)"/>
    </g>
    <g id="Layer_3" data-name="Layer 3" transform="translate(8.152 54.021)">
      <path id="Path_126" data-name="Path 126" class="cls-15" d="M299,130.75v0Z" transform="translate(-70.185 -81.308)"/>
      <path id="Path_127" data-name="Path 127" class="cls-5" d="M9.919,68.278l-.008-.008-.071.008.008.008.079-.008H9.919Z" transform="translate(-9.84 -68.269)"/>
      <circle id="Ellipse_15" data-name="Ellipse 15" class="cls-5" cx="0.008" cy="0.008" r="0.008" transform="translate(0.068 0.013) rotate(-52.26)"/>
    </g>
  </g>
</svg>
